<svg version="1.1" id="Layer_1" xmlns="http://www.w3.org/2000/svg" xmlns:xlink="http://www.w3.org/1999/xlink" x="0px" y="0px" width="115.5px" height="22.583px" viewBox="0 0 115.5 22.583" enable-background="new 0 0 115.5 22.583" xml:space="preserve">
			<path fill="#D42F48" d="M3.803,20.128c0,1.036-0.549,1.556-1.735,1.556c-1.184,0-1.735-0.52-1.735-1.556V2.107
				c0-1.032,0.551-1.548,1.735-1.548c1.186,0,1.735,0.516,1.735,1.548V20.128z"></path>
			<path fill="#D42F48" d="M17.477,0.639c2.693,0,4.04,3.344,4.04,5.332c0,1.857-0.359,3.934-2.031,5.057
				c2.001,1.279,2.831,3.494,2.622,5.669c-0.285,2.989-1.556,4.987-5.168,4.987H9.319c-2.131,0-2.809-0.544-2.809-1.857V2.491
				c0-1.034,0.678-1.852,1.775-1.852H17.477z M9.996,8.107c1.853,0.069,4.686,0.707,6.356,1.305c0.123,0.045,0.635-0.316,0.745-0.394
				c0.231-0.171,0.441-0.37,0.618-0.604c0.346-0.45,0.542-1.06,0.586-1.645c0.061-0.861-0.25-2.003-0.842-2.603
				c-0.376-0.378-1.03-0.586-1.538-0.586L9.996,3.585V8.107z M9.956,18.547c0,0,3.538,0.027,3.795,0.027
				c0.423,0.003,1.513,0,1.937,0.006c0.94,0.012,1.641,0.003,2.469-0.546c0.258-0.17,0.492-0.432,0.609-0.739
				c0.131-0.344,0.172-0.72,0.172-1.092c0-1.548-1.162-2.679-2.315-3.359c-0.33-0.194-0.676-0.355-1.029-0.507
				c-1.269-0.549-3.236-0.889-4.59-1.073c-0.081-0.011-1.048-0.106-1.048-0.106V18.547z"></path>
			<path fill="#4F5051" d="M38.583,18.102c0,2.384-1.826,3.582-5.479,3.582h-7.207c-0.682,0-1.022-0.343-1.022-1.032
				c0-0.858,0.346-1.281,1.026-1.281h7.223c1.722,0,2.593-0.428,2.593-1.269v-0.476c0.005-0.756-0.782-1.14-2.354-1.14H31.01
				c-4.128,0-6.188-1.156-6.183-3.456v-0.682c0-1.521,1.041-2.504,3.116-2.928c0.419-0.095,1.035-0.166,1.843-0.214
				c0.802-0.053,5.936-0.016,7.157-0.016c0.69,0,1.036,0.436,1.036,1.307c0,0.678-0.354,1.019-1.036,1.019l-6.109-0.054
				c-1.036,0-1.659,0.008-1.871,0.036c-0.913,0.125-1.377,0.407-1.377,0.85v0.663c0,0.744,1.147,1.119,3.447,1.119h2.44
				c3.41,0,5.114,1.133,5.114,3.388L38.583,18.102z"></path>
			<path fill="#4F5051" d="M53.948,20.651c0,0.495-0.179,0.809-0.552,0.938c-0.105,0.069-0.507,0.095-1.194,0.095
				c-0.673,0-1.013-0.343-1.013-1.032l0.017-7.396c0-0.777-0.465-1.295-1.39-1.533c-0.607-0.118-1.385-0.182-2.316-0.182h-5.201
				l-0.022,9.111c0,0.689-0.34,1.032-1.02,1.032c-0.682,0-1.078-0.025-1.189-0.095c-0.372-0.129-0.547-0.442-0.547-0.938L39.469,5.328
				c0-0.502,0.192-0.818,0.557-0.943c0.136-0.048,0.537-0.08,1.184-0.08c0.685,0,1.025,0.34,1.025,1.023l0.066,3.906h4.553
				c2.2,0,3.749,0.18,4.642,0.523c1.646,0.6,2.473,1.749,2.466,3.461L53.948,20.651z"></path>
			<path fill="#4F5051" d="M70.302,15.623c-0.036,0.671-0.284,1.136-1.006,1.136c-1.069,0-2.138,0-3.207,0c-0.943,0-1.885,0-2.828,0
				c-1.288,0-1.895,0-3.181,0c-0.717,0-1.435,0-2.149,0c-0.004,0-0.027,0-0.027,0c0.015,0.601-0.07,1.222,0.252,1.755
				c0.49,0.809,1.784,0.761,2.591,0.796c1.819,0.075,2.958,0.057,4.778,0.059c0.527,0.002,1.054,0.002,1.582,0.002
				c0.674,0,1.35,0,2.026,0c0.679,0,0.992,0.356,0.992,1.213c0,0.691-0.648,1.101-1.331,1.101c-0.38,0-0.762,0-1.143-0.003
				c-0.656,0-1.313,0-1.968,0c-0.748,0-1.492-0.004-2.24-0.004c-0.652,0-0.623,0.001-1.271-0.005c-0.705-0.01-1.401-0.013-2.104-0.071
				c-1.055-0.087-2.158-0.241-3.114-0.725c-0.202-0.103-0.395-0.22-0.571-0.359c-1.021-0.8-1.324-2.014-1.324-3.087c0,0,0-4.33,0-4.333
				c0-0.667,0.222-1.419,0.618-1.95c0.48-0.638,1.205-1.056,1.938-1.344c1.056-0.415,2.172-0.613,3.304-0.67
				c1.018-0.048,1.354-0.059,2.373-0.053c1.638,0.016,3.388-0.002,4.914,0.692c1.017,0.461,1.854,1.208,2.02,2.354
				c0.126,0.876,0.073,1.741,0.073,2.621C70.301,15.028,70.319,15.33,70.302,15.623z M67.584,14.367v-1.542
				c0-0.945-1.384-1.41-5.133-1.41c-2.204,0-1.928,0.054-2.742,0.209c-1.165,0.218-1.899,0.929-1.899,1.564l0.005,1.179H67.584z"></path>
			<path fill="#4F5051" d="M94.317,11.522c0.688,0,1.034-0.341,1.034-1.019c0.004-0.858-0.345-1.284-1.034-1.284H92.16l0.012-2.474
				c0-0.489-0.192-0.794-0.565-0.93c-0.118-0.059-0.507-0.09-1.183-0.09c-0.682,0-1.021,0.336-1.021,1.02L89.398,9.22
				c-0.363,0-0.666,0.011-0.896,0.021c-0.23,0.013-0.394,0.028-0.488,0.045c-0.437,0.151-0.653,0.51-0.665,1.088
				c0.007,0.57,0.229,0.939,0.661,1.083c0.099,0.015,0.257,0.034,0.488,0.042c0.233,0.019,0.529,0.022,0.896,0.022l-0.027,6.095
				c0,0.098,0.013,0.178,0.027,0.263c0.07,0.412,0.094,0.792,0.274,1.18c0.158,0.344,0.386,0.657,0.638,0.946
				c0.972,1.11,2.433,1.53,3.855,1.647c0.457,0.033,0.93,0.042,1.387,0.008c1.325-0.104,1.23-2.306-0.085-2.306
				c-0.729,0-1.539,0.035-2.213-0.287c-0.795-0.378-1.112-1.226-1.112-2.046c-0.003-0.786,0.004-1.57,0.011-2.354
				c0.007-0.843-0.001-1.685,0.007-2.528c0-0.034,0.004-0.618,0.004-0.618H94.317z"></path>
			<path fill="#4F5051" d="M86.606,15.623c-0.038,0.671-0.288,1.136-1.008,1.136c-1.068,0-2.138,0-3.207,0c-0.942,0-1.886,0-2.827,0
				c-1.286,0-1.896,0-3.181,0c-0.718,0-1.433,0-2.149,0c-0.002,0-0.025,0-0.025,0c0.012,0.601-0.073,1.222,0.248,1.755
				c0.49,0.809,1.786,0.761,2.593,0.796c1.817,0.075,2.961,0.057,4.779,0.059c0.525,0.002,1.051,0.002,1.579,0.002
				c0.675,0,1.351,0,2.027,0s0.994,0.356,0.994,1.213c0,0.691-0.646,1.101-1.332,1.101c-0.381,0-0.763,0-1.144-0.003
				c-0.655,0-1.311,0-1.968,0c-0.744,0-1.492-0.004-2.24-0.004c-0.649,0-0.62,0.001-1.272-0.005c-0.701-0.01-1.4-0.013-2.102-0.071
				c-1.057-0.087-2.16-0.241-3.111-0.725c-0.205-0.103-0.397-0.22-0.574-0.359c-1.021-0.8-1.322-2.014-1.322-3.087c0,0,0-4.33,0-4.333
				c0-0.667,0.218-1.419,0.618-1.95c0.479-0.638,1.199-1.056,1.933-1.344c1.061-0.415,2.173-0.613,3.306-0.67
				c1.017-0.048,1.355-0.059,2.373-0.053c1.638,0.016,3.391-0.002,4.913,0.692c1.019,0.461,1.858,1.208,2.021,2.354
				c0.126,0.876,0.073,1.741,0.074,2.621C86.602,15.028,86.62,15.33,86.606,15.623z M83.885,14.367v-1.542
				c0-0.945-1.383-1.41-5.13-1.41c-2.205,0-1.929,0.054-2.744,0.209c-1.165,0.218-1.898,0.929-1.898,1.564l0.005,1.179H83.885z"></path>
			<polygon fill="#D42F48" points="99.075,0.552 115.007,0.552 104.587,21.695 99.445,21.695 108.121,4.918 100.85,4.918 "></polygon>
			</svg>