<svg id="Layer_1" data-name="Layer 1" xmlns="http://www.w3.org/2000/svg" viewBox="0 0 496 483.61"><title>github-brands-black</title><path d="M165.9,397.4c0,2-2.3,3.6-5.2,3.6-3.3.3-5.6-1.3-5.6-3.6,0-2,2.3-3.6,5.2-3.6C163.3,393.5,165.9,395.1,165.9,397.4Zm-31.1-4.5c-.7,2,1.3,4.3,4.3,4.9,2.6,1,5.6,0,6.2-2s-1.3-4.3-4.3-5.2c-2.6-.7-5.5.3-6.2,2.3Zm44.2-1.7c-2.9.7-4.9,2.6-4.6,4.9.3,2,2.9,3.3,5.9,2.6s4.9-2.6,4.6-4.6S181.9,390.9,179,391.2ZM244.8,8C106.1,8,0,113.3,0,252,0,362.9,69.8,457.8,169.5,491.2c12.8,2.3,17.3-5.6,17.3-12.1,0-6.2-.3-40.4-.3-61.4,0,0-70,15-84.7-29.8,0,0-11.4-29.1-27.8-36.6,0,0-22.9-15.7,1.6-15.4,0,0,24.9,2,38.6,25.8,21.9,38.6,58.6,27.5,72.9,20.9,2.3-16,8.8-27.1,16-33.7-55.9-6.2-112.3-14.3-112.3-110.5,0-27.5,7.6-41.3,23.6-58.9-2.6-6.5-11.1-33.3,2.6-67.9,20.9-6.5,69,27,69,27a236.24,236.24,0,0,1,125.6,0s48.1-33.6,69-27c13.7,34.7,5.2,61.4,2.6,67.9,16,17.7,25.8,31.5,25.8,58.9,0,96.5-58.9,104.2-114.8,110.5,9.2,7.9,17,22.9,17,46.4,0,33.7-.3,75.4-.3,83.6,0,6.5,4.6,14.4,17.3,12.1C428.2,457.8,496,362.9,496,252,496,113.3,383.5,8,244.8,8ZM97.2,352.9c-1.3,1-1,3.3.7,5.2,1.6,1.6,3.9,2.3,5.2,1,1.3-1,1-3.3-.7-5.2C100.8,352.3,98.5,351.6,97.2,352.9Zm-10.8-8.1c-.7,1.3.3,2.9,2.3,3.9,1.6,1,3.6.7,4.3-.7s-.3-2.9-2.3-3.9C88.7,343.5,87.1,343.8,86.4,344.8Zm32.4,35.6c-1.6,1.3-1,4.3,1.3,6.2,2.3,2.3,5.2,2.6,6.5,1,1.3-1.3.7-4.3-1.3-6.2C123.1,379.1,120.1,378.8,118.8,380.4Zm-11.4-14.7c-1.6,1-1.6,3.6,0,5.9s4.3,3.3,5.6,2.3c1.6-1.3,1.6-3.9,0-6.2-1.4-2.3-4-3.3-5.6-2Z" transform="translate(0 -8)"/></svg>