<svg id="Layer_1" data-name="Layer 1" xmlns="http://www.w3.org/2000/svg" viewBox="0 0 118.53 27.92"><defs><style>.cls-1{fill:#fff;}</style></defs><title>ibleaders-ci-en</title><path class="cls-1" d="M637.76,369.76a14,14,0,1,0,14,14A14,14,0,0,0,637.76,369.76Zm8.37,11.79v8.37a4.22,4.22,0,0,1-4.21,4.21h-.76v-8.44a4.22,4.22,0,0,1,4.21-4.21h.76ZM644,379.4a2.49,2.49,0,1,1,2.49-2.48A2.48,2.48,0,0,1,644,379.4Z" transform="translate(-623.8 -369.76)"/><path class="cls-1" d="M659.34,390.7V377.9h2.57v12.8ZM667,385h0v3.7h1.21c1.75,0,2.63-.59,2.63-1.78S670,385,668.25,385Zm0-5.06h0v3.15h1c1.61,0,2.42-.52,2.42-1.56a1.33,1.33,0,0,0-.81-1.35,4.27,4.27,0,0,0-1.66-.24Zm-2.57,10.78h0V377.9h4.47a5.24,5.24,0,0,1,2.88.7,2.9,2.9,0,0,1,1.25,2.58,2.7,2.7,0,0,1-.71,1.9,3.13,3.13,0,0,1-1.84,1v0a3.55,3.55,0,0,1,2.07.88,2.69,2.69,0,0,1,.86,2,3.26,3.26,0,0,1-1.36,2.88,5.37,5.37,0,0,1-3.15.83Zm15.27,0h0V377.9h2.57v10.78h5v2Zm10.5-5.65h4.18c-.09-1.48-.75-2.22-2-2.22s-2,.74-2.18,2.22Zm5.83,3.12h0v2a6.5,6.5,0,0,1-3.24.76,5,5,0,0,1-3.64-1.28A4.85,4.85,0,0,1,687.9,386,5.5,5.5,0,0,1,689,382.5a4,4,0,0,1,3.3-1.46,3.94,3.94,0,0,1,3.59,1.68,7.39,7.39,0,0,1,.9,4h-6.53a2.42,2.42,0,0,0,.81,1.76,2.85,2.85,0,0,0,1.89.62,6.57,6.57,0,0,0,3.13-.95Zm2.93-4.31h0l-.07-2.11a7.87,7.87,0,0,1,3.28-.71,4.37,4.37,0,0,1,3.1.93,4.12,4.12,0,0,1,1,3v1.21c0,1.79.05,3.28.14,4.48h-2.16c0-.13-.06-.6-.11-1.42h0a3.06,3.06,0,0,1-1.22,1.2,3.52,3.52,0,0,1-1.69.44,3.64,3.64,0,0,1-2.27-.72,2.52,2.52,0,0,1-1-2.09q0-3.24,4.79-3.24H704a2.1,2.1,0,0,0-.5-1.57,2.36,2.36,0,0,0-1.62-.47,4.79,4.79,0,0,0-2.92,1Zm1.25,4.1h0c0,.77.52,1.16,1.56,1.16,1.49,0,2.23-.93,2.23-2.79H703c-1.82,0-2.73.55-2.73,1.63Zm10-2h0a4.27,4.27,0,0,0,.43,2,1.77,1.77,0,0,0,1.64,1.05,1.81,1.81,0,0,0,1.68-1,4,4,0,0,0,.48-2,3.79,3.79,0,0,0-.51-2,1.9,1.9,0,0,0-1.69-1,1.72,1.72,0,0,0-1.61,1,4.26,4.26,0,0,0-.42,2Zm4.32,4.75h0v-1.07a3.52,3.52,0,0,1-2.91,1.29,3.48,3.48,0,0,1-3.08-1.53,6,6,0,0,1-.9-3.44,5.91,5.91,0,0,1,.88-3.41,3.77,3.77,0,0,1,5.88-.18h0V377H717V390.7Zm6.28-5.65h4.18c-.09-1.48-.76-2.22-2-2.22s-2.05.74-2.18,2.22Zm5.83,3.12h0v2a6.54,6.54,0,0,1-3.25.76,5,5,0,0,1-3.64-1.28,4.85,4.85,0,0,1-1.29-3.62,5.5,5.5,0,0,1,1.08-3.52,4.05,4.05,0,0,1,3.3-1.46,3.93,3.93,0,0,1,3.59,1.68,7.39,7.39,0,0,1,.9,4h-6.52a2.42,2.42,0,0,0,.8,1.76,2.85,2.85,0,0,0,1.89.62,6.61,6.61,0,0,0,3.14-.95Zm2.3,2.53h0v-9.44h2.18v2.14a2.6,2.6,0,0,1,.91-1.64,2.5,2.5,0,0,1,1.7-.72,3,3,0,0,1,.76.07v2.48a2.2,2.2,0,0,0-1.1-.21,1.73,1.73,0,0,0-1.74,1.41,8.64,8.64,0,0,0-.26,2.44v3.47Zm12.85-9.31h0l-.17,1.85a6.74,6.74,0,0,0-2.2-.41c-1,0-1.45.35-1.45,1.05,0,.38.37.69,1.1.93a9.81,9.81,0,0,1,2.07.83,2.45,2.45,0,0,1,1.1,2.2,2.67,2.67,0,0,1-1.24,2.38,4.89,4.89,0,0,1-2.71.7,10.89,10.89,0,0,1-2.79-.41l.15-2a5.44,5.44,0,0,0,2.42.62,2.16,2.16,0,0,0,1.08-.26,1,1,0,0,0,.53-.9c0-.48-.37-.85-1.1-1.09a17.94,17.94,0,0,1-2.07-.76,2.29,2.29,0,0,1-1.1-2.14,2.55,2.55,0,0,1,1.15-2.25,4.4,4.4,0,0,1,2.55-.68A12.85,12.85,0,0,1,741.87,381.39Z" transform="translate(-623.8 -369.76)"/></svg>