<svg id="Layer_1" data-name="Layer 1" xmlns="http://www.w3.org/2000/svg" viewBox="0 0 111.68 27.92"><defs><style>.cls-1{fill:#fff;}</style></defs><title>ibleaders-ci</title><path class="cls-1" d="M674.22,379.65h-1.74v6.79a.39.39,0,0,1-.05.23.34.34,0,0,1-.21.05H670.8a.37.37,0,0,1-.22-.05c-.05,0-.07-.11-.07-.23V373a.26.26,0,0,1,.07-.22.3.3,0,0,1,.22-.06h1.42a.28.28,0,0,1,.21.06.37.37,0,0,1,.05.22v5h1.74a.56.56,0,0,1,.21,0c.05,0,.08.1.08.24v1.11a.25.25,0,0,1-.08.22.33.33,0,0,1-.21,0Zm-8.43,3.67h0a3,3,0,0,1-1.48-.36,3.3,3.3,0,0,1-1.13-1,4.81,4.81,0,0,1-.72-1.51,6.78,6.78,0,0,1-.26-1.91,7.17,7.17,0,0,1,.26-2,5,5,0,0,1,.72-1.55,3.41,3.41,0,0,1,1.13-1,3,3,0,0,1,1.48-.36,3.13,3.13,0,0,1,1.49.36,3.46,3.46,0,0,1,1.14,1,4.89,4.89,0,0,1,.73,1.54,7.18,7.18,0,0,1,.25,2,7,7,0,0,1-.25,1.95,4.83,4.83,0,0,1-.73,1.53,3.58,3.58,0,0,1-1.14,1,3.24,3.24,0,0,1-1.49.35Zm0-8h0a1,1,0,0,0-.67.24,1.9,1.9,0,0,0-.52.67,3.71,3.71,0,0,0-.34,1,6.27,6.27,0,0,0-.12,1.26,6,6,0,0,0,.12,1.23,3.48,3.48,0,0,0,.34,1,2,2,0,0,0,.52.66,1,1,0,0,0,.67.24,1.06,1.06,0,0,0,.67-.24,1.86,1.86,0,0,0,.53-.66,4,4,0,0,0,.34-1,6,6,0,0,0,.12-1.23,6.27,6.27,0,0,0-.12-1.26,3.71,3.71,0,0,0-.34-1,1.82,1.82,0,0,0-.53-.67,1.06,1.06,0,0,0-.67-.24Zm20.41,11.38h-1.41a.36.36,0,0,1-.21-.05.32.32,0,0,1-.06-.23V373a.3.3,0,0,1,.06-.22.29.29,0,0,1,.21-.06h1.41q.16,0,.21.06a.3.3,0,0,1,.06.22v13.41a.22.22,0,0,1-.27.28Zm-6.73-3.43h0a3.05,3.05,0,0,1-1.48-.35,3.3,3.3,0,0,1-1.13-1,4.7,4.7,0,0,1-.72-1.51,6.81,6.81,0,0,1-.25-1.92,7.18,7.18,0,0,1,.25-2,4.87,4.87,0,0,1,.72-1.54,3.33,3.33,0,0,1,1.13-1,3.06,3.06,0,0,1,1.48-.36A3.26,3.26,0,0,1,681,374a3.3,3.3,0,0,1,1.13,1,4.72,4.72,0,0,1,.72,1.53,7.18,7.18,0,0,1,.25,2,7.05,7.05,0,0,1-.25,2,4.7,4.7,0,0,1-.72,1.51,3.27,3.27,0,0,1-1.13,1,3.14,3.14,0,0,1-1.51.35Zm0-7.86h0a1.11,1.11,0,0,0-.67.23,2,2,0,0,0-.52.63,3.87,3.87,0,0,0-.34,1,5.9,5.9,0,0,0-.12,1.23,5.68,5.68,0,0,0,.12,1.2,3.49,3.49,0,0,0,.34,1,2.11,2.11,0,0,0,.52.64,1.11,1.11,0,0,0,.67.23,1.14,1.14,0,0,0,.69-.23,2.11,2.11,0,0,0,.52-.64,3.49,3.49,0,0,0,.34-1,5.68,5.68,0,0,0,.12-1.2,5.9,5.9,0,0,0-.12-1.23,3.87,3.87,0,0,0-.34-1,2,2,0,0,0-.52-.63,1.14,1.14,0,0,0-.69-.23Zm19.41,11.29h-1.41a.36.36,0,0,1-.21-.05s0-.11,0-.23V373c0-.11,0-.18,0-.22a.29.29,0,0,1,.21-.06h1.41a.3.3,0,0,1,.22.06.37.37,0,0,1,0,.22v13.41a.41.41,0,0,1,0,.23.37.37,0,0,1-.22.05Zm-4.74-4.05h-4.31a2.75,2.75,0,0,1-.56-.05.63.63,0,0,1-.34-.15.58.58,0,0,1-.16-.31,2.7,2.7,0,0,1,0-.54V373.8c0-.19.08-.28.25-.28h1.42a.26.26,0,0,1,.29.28v2.88h2.58v-2.89q0-.3.27-.3H695c.19,0,.28.1.28.3v7.87a1.1,1.1,0,0,1-.22.79,1.27,1.27,0,0,1-.87.22Zm-.87-4.34h-2.58v2.47c0,.15.07.22.21.22h2.16c.14,0,.21-.07.21-.22v-2.47Zm18.29,8.39h-1.41a.36.36,0,0,1-.21-.05s-.05-.11-.05-.23V373a.37.37,0,0,1,.05-.22.29.29,0,0,1,.21-.06h1.41a.3.3,0,0,1,.22.06.37.37,0,0,1,.05.22v13.41a.41.41,0,0,1-.05.23.37.37,0,0,1-.22.05Zm-2.72-3.88h0q-.63.14-1.41.24c-.52.06-1,.12-1.6.16s-1.1.07-1.65.08-1.07,0-1.56,0a1.16,1.16,0,0,1-.84-.25,1.11,1.11,0,0,1-.22-.79v-3.8a.87.87,0,0,1,.2-.65.9.9,0,0,1,.65-.19h3.33c.08,0,.14,0,.16,0a.26.26,0,0,0,0-.16v-1.78a.15.15,0,0,0-.2-.2h-3.81a.25.25,0,0,1-.28-.28v-1.11a.3.3,0,0,1,.06-.22s.11,0,.22,0h5a1.75,1.75,0,0,1,.5,0,.62.62,0,0,1,.3.16.68.68,0,0,1,.14.31,3.14,3.14,0,0,1,0,.48v3.36a1.1,1.1,0,0,1-.24.83,1.12,1.12,0,0,1-.75.21h-3.21a.17.17,0,0,0-.19.19v2.11c0,.12.07.19.22.19a23.66,23.66,0,0,0,2.52-.08,19.08,19.08,0,0,0,2.4-.32c.1,0,.17,0,.19,0a.41.41,0,0,1,.06.16l.19,1.08c0,.11,0,.18,0,.21a.38.38,0,0,1-.21.08Zm15.65,3.88h-1.44a.37.37,0,0,1-.22-.05.39.39,0,0,1-.05-.23v-7.56h-3.2a.34.34,0,0,1-.2-.05s-.07-.1-.07-.21V377.5a.26.26,0,0,1,.07-.22.28.28,0,0,1,.2-.06h3.2V373a.37.37,0,0,1,.05-.22.3.3,0,0,1,.22-.06h1.44a.25.25,0,0,1,.2.06.37.37,0,0,1,0,.22v13.41a.41.41,0,0,1,0,.23.3.3,0,0,1-.2.05Zm-3.09-4.31h0a.4.4,0,0,0,.21-.11s0-.11,0-.21l-.17-1.07a.34.34,0,0,0-.09-.17.27.27,0,0,0-.21,0c-.37.07-.76.13-1.18.18l-1.25.12c-.42,0-.84.06-1.24.07l-1.11,0a.21.21,0,0,1-.23-.24v-5.28a.33.33,0,0,1,0-.15s.08-.06.17-.06h3.89a.47.47,0,0,0,.23,0s.07-.1.07-.2v-1.15a.26.26,0,0,0-.07-.22.44.44,0,0,0-.23-.05h-5.08a3,3,0,0,0-.48,0,.53.53,0,0,0-.3.14.54.54,0,0,0-.15.28,2.05,2.05,0,0,0,0,.47v7.17c0,.41.08.67.25.79a1.33,1.33,0,0,0,.75.18c.41,0,.88,0,1.43,0s1.1,0,1.68-.08,1.13-.11,1.68-.18,1-.16,1.41-.25Zm6.16-2h0a.45.45,0,0,1-.27.05.41.41,0,0,1-.16-.18l-.55-1c-.12-.22-.09-.37.07-.43a10,10,0,0,0,1.82-.91,5.75,5.75,0,0,0,1.33-1.15,4.94,4.94,0,0,0,.87-1.42,6.75,6.75,0,0,0,.42-1.77.44.44,0,0,1,.08-.23c0-.05.12-.07.25-.06l1.34.09c.17,0,.28.05.31.1a.41.41,0,0,1,0,.27c0,.27-.05.52-.09.77a4.89,4.89,0,0,0,.63,1.35,5.84,5.84,0,0,0,1,1.14,7.38,7.38,0,0,0,1.29.89,7.28,7.28,0,0,0,1.47.62c.12,0,.19.09.2.15a.45.45,0,0,1-.07.24L737,380a.57.57,0,0,0-.07.13s0,.06-.06.06-.11,0-.22,0a6.1,6.1,0,0,1-1.27-.46,8.74,8.74,0,0,1-1.24-.73,7.45,7.45,0,0,1-1.13-1,7.53,7.53,0,0,1-.91-1.15,7.37,7.37,0,0,1-1.93,2.13,9.74,9.74,0,0,1-2.65,1.4Zm10.62,3.79H726.06c-.12,0,.23,0,.19-.09s-.47-.13-.47-.22v-1c0-.11.44-.19.47-.24s-.31-.07-.19-.07h12.12c.2,0,.3.1.3.31v1C738.48,384.14,738.38,384.24,738.18,384.24Z" transform="translate(-626.8 -369.84)"/><path class="cls-1" d="M640.76,369.84a14,14,0,1,0,14,14A14,14,0,0,0,640.76,369.84Zm8.37,11.79V390a4.22,4.22,0,0,1-4.21,4.21h-.76v-8.44a4.22,4.22,0,0,1,4.21-4.21h.76ZM647,379.48a2.48,2.48,0,1,1,2.49-2.48A2.48,2.48,0,0,1,647,379.48Z" transform="translate(-626.8 -369.84)"/><path class="cls-1" d="M667.31,394.44v-4.95h.76v4.95Zm2.24,0h0v-4.95H671c1.25,0,1.87.41,1.87,1.25,0,.61-.37,1-1.1,1.17v0a1.47,1.47,0,0,1,.9.36,1.1,1.1,0,0,1,.33.83c0,.88-.67,1.32-2,1.32Zm.76-2.26h0v1.68h.57c.86,0,1.3-.27,1.3-.8s-.46-.88-1.38-.88Zm0-2.11h0v1.53h.41a2.64,2.64,0,0,0,1-.12.66.66,0,0,0,.41-.67c0-.5-.33-.74-1-.74Zm5.65,4.37h0v-4.95h.76v4.33H679v.62Zm7-.81h0v.66a3.8,3.8,0,0,1-1.22.24,2,2,0,0,1-1.51-.53,1.94,1.94,0,0,1-.5-1.43,1.8,1.8,0,0,1,.48-1.3,1.73,1.73,0,0,1,1.34-.53q1.71,0,1.71,2h-2.77a1.12,1.12,0,0,0,.37.86,1.28,1.28,0,0,0,.91.35,2.15,2.15,0,0,0,.62-.1,1.69,1.69,0,0,0,.57-.26Zm-2.47-1.35h2a1,1,0,0,0-.26-.72.89.89,0,0,0-.71-.28,1,1,0,0,0-.74.29,1.18,1.18,0,0,0-.3.71Zm4.21-.64h0l0-.56a2.58,2.58,0,0,1,1.28-.34c1,0,1.56.5,1.56,1.49v1.5a5.78,5.78,0,0,0,0,.71h-.67V394a1.43,1.43,0,0,1-1.21.56c-1,0-1.43-.38-1.43-1.12a1,1,0,0,1,.61-.93,2.59,2.59,0,0,1,1.2-.26h.76a.81.81,0,0,0-1-.94,1.82,1.82,0,0,0-1.13.36Zm2.09,1.4h0v-.32h-.46c-.9,0-1.35.23-1.35.7a.54.54,0,0,0,.22.43.86.86,0,0,0,.51.16,1.21,1.21,0,0,0,.78-.25.88.88,0,0,0,.3-.7Zm4.93,1.4h0v-.51h0a1.5,1.5,0,0,1-1.32.6,1.48,1.48,0,0,1-1.27-.62,2.19,2.19,0,0,1-.39-1.34,1.93,1.93,0,0,1,.42-1.28,1.55,1.55,0,0,1,1.27-.55,1.43,1.43,0,0,1,1.29.58v-2.2h.71v5.32Zm-2.24-1.82h0a1.64,1.64,0,0,0,.25.91.94.94,0,0,0,.82.46,1,1,0,0,0,.86-.43,1.67,1.67,0,0,0,0-1.85,1,1,0,0,0-.87-.43.92.92,0,0,0-.83.43,1.6,1.6,0,0,0-.23.91Zm7.38,1h0v.66a3.85,3.85,0,0,1-1.23.24,2,2,0,0,1-1.5-.53,1.91,1.91,0,0,1-.51-1.43,1.8,1.8,0,0,1,.48-1.3,1.74,1.74,0,0,1,1.34-.53q1.71,0,1.71,2h-2.77a1.16,1.16,0,0,0,.37.86,1.29,1.29,0,0,0,.91.35,2.27,2.27,0,0,0,.63-.1,1.91,1.91,0,0,0,.57-.26Zm-2.48-1.35h2a1,1,0,0,0-.25-.72.91.91,0,0,0-.71-.28,1,1,0,0,0-.74.29,1.19,1.19,0,0,0-.31.71Zm4,2.16h0v-3.62H699v.56a1.26,1.26,0,0,1,.43-.46,1.07,1.07,0,0,1,.59-.18,2.17,2.17,0,0,1,.48.05v.59a1.14,1.14,0,0,0-.39-.06.92.92,0,0,0-.84.5,2,2,0,0,0-.22,1v1.64Zm2.9-.11h0l0-.6a1.76,1.76,0,0,0,.89.26,1,1,0,0,0,.5-.12.43.43,0,0,0,.24-.4c0-.18-.15-.34-.44-.49l-.81-.41a.85.85,0,0,1-.44-.72,1,1,0,0,1,.41-.84,1.56,1.56,0,0,1,1-.27,3.13,3.13,0,0,1,.89.14l-.06.58a1.47,1.47,0,0,0-.36-.12,1.69,1.69,0,0,0-.39-.06,1.08,1.08,0,0,0-.46.09.37.37,0,0,0-.22.35c0,.19.14.36.43.5l.81.39a.91.91,0,0,1,.44.79,1,1,0,0,1-.41.84,1.51,1.51,0,0,1-1,.29,2.41,2.41,0,0,1-1.06-.2Zm8.91-4.72h0l-.07.69A2.26,2.26,0,0,0,709,390a2.06,2.06,0,0,0-1.48.54,2,2,0,0,0,0,2.78,1.94,1.94,0,0,0,1.44.55,2.41,2.41,0,0,0,1.16-.24l0,.69a3.32,3.32,0,0,1-1.21.18,2.93,2.93,0,0,1-2-.7,2.45,2.45,0,0,1-.77-1.89,2.33,2.33,0,0,1,.8-1.84,2.88,2.88,0,0,1,2-.7,3.21,3.21,0,0,1,1.2.21Zm.85,3h0a1.82,1.82,0,0,1,.54-1.36,2,2,0,0,1,1.44-.53,1.91,1.91,0,0,1,1.42.53,1.93,1.93,0,0,1,0,2.71,2.1,2.1,0,0,1-2.83,0,1.81,1.81,0,0,1-.56-1.35Zm.76,0h0a1.45,1.45,0,0,0,.3.94,1.21,1.21,0,0,0,1.83,0,1.45,1.45,0,0,0,.3-.94,1.49,1.49,0,0,0-.31-.93,1.19,1.19,0,0,0-1.81,0,1.49,1.49,0,0,0-.31.93Zm8.93,1.81h0v-4.95h.76v4.33h2.23v.62Zm6.07-3.62h0v.54h-1v2a.69.69,0,0,0,.16.46.52.52,0,0,0,.44.19.88.88,0,0,0,.49-.13v.57a2.31,2.31,0,0,1-.61.1c-.79,0-1.19-.35-1.19-1v-2.12h-.88v-.54H725V390l.71-.21v1.05Zm3.91,3.62h0v-.51h0a1.5,1.5,0,0,1-1.32.6,1.47,1.47,0,0,1-1.27-.62,2.19,2.19,0,0,1-.39-1.34,2,2,0,0,1,.41-1.28,1.56,1.56,0,0,1,1.27-.55,1.44,1.44,0,0,1,1.3.58v-2.2h.71v5.32Zm-2.25-1.82h0a1.72,1.72,0,0,0,.25.91,1,1,0,0,0,.83.46,1,1,0,0,0,.86-.43,1.67,1.67,0,0,0,0-1.85,1,1,0,0,0-.87-.43.92.92,0,0,0-.83.43A1.6,1.6,0,0,0,728.43,392.62Z" transform="translate(-626.8 -369.84)"/><path class="cls-1" d="M716,393.59a.53.53,0,0,0-.39.16.5.5,0,0,0-.16.39.55.55,0,0,0,.94.39.57.57,0,0,0,.16-.39.53.53,0,0,0-.16-.39.53.53,0,0,0-.39-.16Zm2.18.48h0a.56.56,0,0,0-.55-.55.54.54,0,0,0-.4.17.54.54,0,0,0-.15.38.52.52,0,0,0,.16.38.5.5,0,0,0,.39.17.78.78,0,0,1-.12.3.73.73,0,0,1-.29.26.13.13,0,0,0-.1.15c0,.07.07.08.17.05a1.28,1.28,0,0,0,.64-.49A1.35,1.35,0,0,0,718.22,394.07Z" transform="translate(-626.8 -369.84)"/><path class="cls-1" d="M732.83,393.53a.51.51,0,0,0-.39.16.51.51,0,0,0-.17.39.54.54,0,0,0,.17.39.51.51,0,0,0,.39.16.52.52,0,0,0,.38-.16.54.54,0,0,0,.17-.39.51.51,0,0,0-.17-.39A.52.52,0,0,0,732.83,393.53Z" transform="translate(-626.8 -369.84)"/></svg>