<svg id="Layer_1" data-name="Layer 1" xmlns="http://www.w3.org/2000/svg" viewBox="0 0 111.68 27.92"><defs><style>.cls-1{fill:#fff;}</style></defs><title>ibleaders-ci-ko</title><path class="cls-1" d="M674.22,383.56h-1.74v6.78a.39.39,0,0,1-.05.23.34.34,0,0,1-.21.05H670.8a.37.37,0,0,1-.22-.05c-.05,0-.07-.11-.07-.23V376.93a.26.26,0,0,1,.07-.22.3.3,0,0,1,.22-.06h1.42a.28.28,0,0,1,.21.06.37.37,0,0,1,.05.22v5h1.74a.56.56,0,0,1,.21,0c.05,0,.08.11.08.24v1.11c0,.12,0,.19-.08.22a.33.33,0,0,1-.21.06Zm-8.43,3.66h0a3,3,0,0,1-1.48-.36,3.38,3.38,0,0,1-1.13-1,5,5,0,0,1-.72-1.52,6.78,6.78,0,0,1-.26-1.91,7.22,7.22,0,0,1,.26-2,4.87,4.87,0,0,1,.72-1.54,3.3,3.3,0,0,1,1.13-1,2.93,2.93,0,0,1,1.48-.37,3.13,3.13,0,0,1,1.49.36,3.49,3.49,0,0,1,1.14,1,4.83,4.83,0,0,1,.73,1.53,7.23,7.23,0,0,1,.25,2,7.16,7.16,0,0,1-.25,2,4.77,4.77,0,0,1-.73,1.52,3.58,3.58,0,0,1-1.14,1,3.12,3.12,0,0,1-1.49.35Zm0-8h0a1,1,0,0,0-.67.24,2,2,0,0,0-.52.66,3.66,3.66,0,0,0-.34,1,6.52,6.52,0,0,0,0,2.49,3.71,3.71,0,0,0,.34,1,2,2,0,0,0,.52.65,1,1,0,0,0,.67.24,1.06,1.06,0,0,0,.67-.24,1.86,1.86,0,0,0,.53-.66,3.71,3.71,0,0,0,.34-1,6,6,0,0,0,.12-1.23,6.1,6.1,0,0,0-.12-1.25,3.66,3.66,0,0,0-.34-1,1.86,1.86,0,0,0-.53-.66,1,1,0,0,0-.67-.24Zm20.41,11.37h-1.41a.36.36,0,0,1-.21-.05.32.32,0,0,1-.06-.23V376.93a.3.3,0,0,1,.06-.22.29.29,0,0,1,.21-.06h1.41q.16,0,.21.06a.3.3,0,0,1,.06.22v13.41a.22.22,0,0,1-.27.28Zm-6.73-3.42h0a3.17,3.17,0,0,1-1.48-.35,3.33,3.33,0,0,1-1.13-1,4.75,4.75,0,0,1-.72-1.5,6.94,6.94,0,0,1-.25-1.93,7.23,7.23,0,0,1,.25-2,4.87,4.87,0,0,1,.72-1.54,3.33,3.33,0,0,1,1.13-1,3.06,3.06,0,0,1,1.48-.36,3.26,3.26,0,0,1,1.51.35,3.3,3.3,0,0,1,1.13,1,4.82,4.82,0,0,1,.72,1.53,7.23,7.23,0,0,1,.25,2,7,7,0,0,1-.25,2,4.7,4.7,0,0,1-.72,1.51,3.41,3.41,0,0,1-1.13,1,3.26,3.26,0,0,1-1.51.35Zm0-7.87h0a1.11,1.11,0,0,0-.67.23,2,2,0,0,0-.52.63,3.87,3.87,0,0,0-.34,1,6,6,0,0,0-.12,1.23,5.68,5.68,0,0,0,.12,1.2,3.49,3.49,0,0,0,.34,1,2,2,0,0,0,.52.64,1,1,0,0,0,.67.23,1.08,1.08,0,0,0,.69-.23,2,2,0,0,0,.52-.64,3.49,3.49,0,0,0,.34-1,5.68,5.68,0,0,0,.12-1.2,5.9,5.9,0,0,0-.12-1.23,3.87,3.87,0,0,0-.34-1,2,2,0,0,0-.52-.63,1.14,1.14,0,0,0-.69-.23Zm19.41,11.29h-1.41a.36.36,0,0,1-.21-.05s0-.11,0-.23V376.93c0-.11,0-.18,0-.22a.29.29,0,0,1,.21-.06h1.41a.3.3,0,0,1,.22.06.37.37,0,0,1,0,.22v13.41a.39.39,0,0,1,0,.23.37.37,0,0,1-.22.05Zm-4.74-4.05h-4.31a2.86,2.86,0,0,1-.56,0,.72.72,0,0,1-.34-.16.54.54,0,0,1-.16-.31,2.7,2.7,0,0,1,0-.54V377.7c0-.18.08-.28.25-.28h1.42a.26.26,0,0,1,.29.28v2.89h2.58v-2.9c0-.2.09-.29.27-.29H695c.19,0,.28.09.28.29v7.87a1.08,1.08,0,0,1-.22.79,1.22,1.22,0,0,1-.87.22Zm-.87-4.34h-2.58v2.48a.19.19,0,0,0,.21.21h2.16a.19.19,0,0,0,.21-.21v-2.48Zm18.29,8.39h-1.41a.36.36,0,0,1-.21-.05s-.05-.11-.05-.23V376.93a.37.37,0,0,1,.05-.22.29.29,0,0,1,.21-.06h1.41a.3.3,0,0,1,.22.06.37.37,0,0,1,.05.22v13.41a.39.39,0,0,1-.05.23.37.37,0,0,1-.22.05Zm-2.72-3.88h0q-.63.13-1.41.24c-.52.06-1,.12-1.6.16s-1.1.08-1.65.08-1.07,0-1.56,0a1.16,1.16,0,0,1-.84-.25,1.09,1.09,0,0,1-.22-.78v-3.8a.72.72,0,0,1,.85-.85h3.33c.08,0,.14,0,.16,0a.26.26,0,0,0,0-.16v-1.78a.3.3,0,0,0,0-.17.28.28,0,0,0-.16,0h-3.81a.25.25,0,0,1-.28-.28V378a.32.32,0,0,1,.06-.22.37.37,0,0,1,.22-.05h5a1.75,1.75,0,0,1,.5.05.55.55,0,0,1,.3.17.64.64,0,0,1,.14.3,3.23,3.23,0,0,1,0,.48v3.36a1.1,1.1,0,0,1-.24.83,1.12,1.12,0,0,1-.75.21h-3.21a.17.17,0,0,0-.19.19v2.11c0,.12.07.19.22.19.83,0,1.68,0,2.52-.07a23.65,23.65,0,0,0,2.4-.32c.1,0,.17,0,.19,0a.41.41,0,0,1,.06.17l.19,1.07c0,.11,0,.18,0,.21a.38.38,0,0,1-.21.08Zm15.65,3.88h-1.44a.37.37,0,0,1-.22-.05.39.39,0,0,1-.05-.23v-7.56h-3.2a.28.28,0,0,1-.2,0s-.07-.1-.07-.21V381.4a.26.26,0,0,1,.07-.22.28.28,0,0,1,.2-.06h3.2v-4.19a.37.37,0,0,1,.05-.22.3.3,0,0,1,.22-.06h1.44a.25.25,0,0,1,.2.06.37.37,0,0,1,0,.22v13.41a.39.39,0,0,1,0,.23.3.3,0,0,1-.2.05Zm-3.09-4.31h0a.5.5,0,0,0,.21-.1s0-.12,0-.22l-.17-1.07a.31.31,0,0,0-.09-.16s-.11,0-.21,0c-.37.07-.76.13-1.18.18l-1.25.12c-.42,0-.84.06-1.24.08l-1.11,0a.21.21,0,0,1-.23-.24v-5.28a.33.33,0,0,1,0-.15.21.21,0,0,1,.17-.06h3.89a.47.47,0,0,0,.23,0s.07-.1.07-.2V378c0-.11,0-.18-.07-.21a.35.35,0,0,0-.23-.06h-5.08a3,3,0,0,0-.48,0,.6.6,0,0,0-.3.14.58.58,0,0,0-.15.28,2.09,2.09,0,0,0,0,.48v7.16c0,.41.08.67.25.79a1.41,1.41,0,0,0,.75.19c.41,0,.88,0,1.43,0s1.1,0,1.68-.08,1.13-.1,1.68-.18,1-.16,1.41-.25Zm6.16-1.95h0a.5.5,0,0,1-.27,0,.44.44,0,0,1-.16-.17l-.55-1c-.12-.23-.09-.37.07-.44a10,10,0,0,0,1.82-.9,6.26,6.26,0,0,0,1.33-1.15,5.12,5.12,0,0,0,.87-1.43,6.68,6.68,0,0,0,.42-1.76.45.45,0,0,1,.08-.24c0-.05.12-.06.25-.05l1.34.08c.17,0,.28.05.31.1a.41.41,0,0,1,0,.27c0,.27-.05.53-.09.77a4.76,4.76,0,0,0,.63,1.35,5.84,5.84,0,0,0,1,1.14,6.87,6.87,0,0,0,1.29.89,7.28,7.28,0,0,0,1.47.62c.12,0,.19.09.2.15a.5.5,0,0,1-.07.25l-.51,1.07a.92.92,0,0,0-.07.13s0,.06-.06.06-.11,0-.22,0a5.57,5.57,0,0,1-1.27-.46,8.74,8.74,0,0,1-1.24-.73,6.91,6.91,0,0,1-1.13-1,7.07,7.07,0,0,1-.91-1.15,7.37,7.37,0,0,1-1.93,2.13,9.77,9.77,0,0,1-2.65,1.41Zm10.62,3.78H726.06c-.12,0,.23,0,.19-.09s-.47-.13-.47-.21v-1c0-.11.44-.19.47-.23s-.31-.08-.19-.08h12.12a.27.27,0,0,1,.3.31v1A.27.27,0,0,1,738.18,388.14Z" transform="translate(-626.8 -369.67)"/><path class="cls-1" d="M640.76,369.67a14,14,0,1,0,14,14A14,14,0,0,0,640.76,369.67Zm8.37,11.8v8.37a4.22,4.22,0,0,1-4.21,4.21h-.76V385.6a4.21,4.21,0,0,1,4.21-4.2h.76ZM647,379.32a2.49,2.49,0,1,1,2.49-2.48A2.49,2.49,0,0,1,647,379.32Z" transform="translate(-626.8 -369.67)"/></svg>