<svg xmlns="http://www.w3.org/2000/svg" width="115.5" height="22.583" viewBox="0 0 115.5 22.583"><path fill="#D42F48" d="M3.803 20.128c0 1.036-.549 1.556-1.735 1.556-1.184 0-1.735-.52-1.735-1.556V2.107C.333 1.075.884.559 2.068.559c1.186 0 1.735.516 1.735 1.548v18.021zM17.477.639c2.693 0 4.04 3.344 4.04 5.332 0 1.857-.359 3.934-2.031 5.057 2.001 1.279 2.831 3.494 2.622 5.669-.285 2.989-1.556 4.987-5.168 4.987H9.319c-2.131 0-2.809-.544-2.809-1.857V2.491c0-1.034.678-1.852 1.775-1.852h9.192zM9.996 8.107c1.853.069 4.686.707 6.356 1.305.123.045.635-.316.745-.394.231-.171.441-.37.618-.604.346-.45.542-1.06.586-1.645.061-.861-.25-2.003-.842-2.603-.376-.378-1.03-.586-1.538-.586l-5.925.005v4.522zm-.04 10.44s3.538.027 3.795.027c.423.003 1.513 0 1.937.006.94.012 1.641.003 2.469-.546.258-.17.492-.432.609-.739.131-.344.172-.72.172-1.092 0-1.548-1.162-2.679-2.315-3.359a9.178 9.178 0 00-1.029-.507c-1.269-.549-3.236-.889-4.59-1.073-.081-.011-1.048-.106-1.048-.106v7.389z"/><path fill="#4F5051" d="M38.583 18.102c0 2.384-1.826 3.582-5.479 3.582h-7.207c-.682 0-1.022-.343-1.022-1.032 0-.858.346-1.281 1.026-1.281h7.223c1.722 0 2.593-.428 2.593-1.269v-.476c.005-.756-.782-1.14-2.354-1.14H31.01c-4.128 0-6.188-1.156-6.183-3.456v-.682c0-1.521 1.041-2.504 3.116-2.928.419-.095 1.035-.166 1.843-.214.802-.053 5.936-.016 7.157-.016.69 0 1.036.436 1.036 1.307 0 .678-.354 1.019-1.036 1.019l-6.109-.054c-1.036 0-1.659.008-1.871.036-.913.125-1.377.407-1.377.85v.663c0 .744 1.147 1.119 3.447 1.119h2.44c3.41 0 5.114 1.133 5.114 3.388l-.004.584zm15.365 2.549c0 .495-.179.809-.552.938-.105.069-.507.095-1.194.095-.673 0-1.013-.343-1.013-1.032l.017-7.396c0-.777-.465-1.295-1.39-1.533-.607-.118-1.385-.182-2.316-.182h-5.201l-.022 9.111c0 .689-.34 1.032-1.02 1.032-.682 0-1.078-.025-1.189-.095-.372-.129-.547-.442-.547-.938l-.052-15.323c0-.502.192-.818.557-.943.136-.048.537-.08 1.184-.08.685 0 1.025.34 1.025 1.023l.066 3.906h4.553c2.2 0 3.749.18 4.642.523 1.646.6 2.473 1.749 2.466 3.461l-.014 7.433zm16.354-5.028c-.036.671-.284 1.136-1.006 1.136H57.904c.015.601-.07 1.222.252 1.755.49.809 1.784.761 2.591.796 1.819.075 2.958.057 4.778.059.527.002 1.054.002 1.582.002h2.026c.679 0 .992.356.992 1.213 0 .691-.648 1.101-1.331 1.101-.38 0-.762 0-1.143-.003h-1.968c-.748 0-1.492-.004-2.24-.004-.652 0-.623.001-1.271-.005-.705-.01-1.401-.013-2.104-.071-1.055-.087-2.158-.241-3.114-.725a3.43 3.43 0 01-.571-.359c-1.021-.8-1.324-2.014-1.324-3.087v-4.333c0-.667.222-1.419.618-1.95.48-.638 1.205-1.056 1.938-1.344 1.056-.415 2.172-.613 3.304-.67a34.782 34.782 0 012.373-.053c1.638.016 3.388-.002 4.914.692 1.017.461 1.854 1.208 2.02 2.354.126.876.073 1.741.073 2.621.002.28.02.582.003.875zm-2.718-1.256v-1.542c0-.945-1.384-1.41-5.133-1.41-2.204 0-1.928.054-2.742.209-1.165.218-1.899.929-1.899 1.564l.005 1.179h9.769zm26.733-2.845c.688 0 1.034-.341 1.034-1.019.004-.858-.345-1.284-1.034-1.284H92.16l.012-2.474c0-.489-.192-.794-.565-.93-.118-.059-.507-.09-1.183-.09-.682 0-1.021.336-1.021 1.02l-.005 2.475c-.363 0-.666.011-.896.021-.23.013-.394.028-.488.045-.437.151-.653.51-.665 1.088.007.57.229.939.661 1.083a4.2 4.2 0 00.488.042c.233.019.529.022.896.022l-.027 6.095c0 .098.013.178.027.263.07.412.094.792.274 1.18.158.344.386.657.638.946.972 1.11 2.433 1.53 3.855 1.647.457.033.93.042 1.387.008 1.325-.104 1.23-2.306-.085-2.306-.729 0-1.539.035-2.213-.287-.795-.378-1.112-1.226-1.112-2.046-.003-.786.004-1.57.011-2.354.007-.843-.001-1.685.007-2.528l.004-.618h2.157zm-7.711 4.101c-.038.671-.288 1.136-1.008 1.136H74.209c.012.601-.073 1.222.248 1.755.49.809 1.786.761 2.593.796 1.817.075 2.961.057 4.779.059.525.002 1.051.002 1.579.002h2.027c.676 0 .994.356.994 1.213 0 .691-.646 1.101-1.332 1.101-.381 0-.763 0-1.144-.003h-1.968c-.744 0-1.492-.004-2.24-.004-.649 0-.62.001-1.272-.005-.701-.01-1.4-.013-2.102-.071-1.057-.087-2.16-.241-3.111-.725a3.376 3.376 0 01-.574-.359c-1.021-.8-1.322-2.014-1.322-3.087v-4.333c0-.667.218-1.419.618-1.95.479-.638 1.199-1.056 1.933-1.344 1.061-.415 2.173-.613 3.306-.67a34.782 34.782 0 012.373-.053c1.638.016 3.391-.002 4.913.692 1.019.461 1.858 1.208 2.021 2.354.126.876.073 1.741.074 2.621 0 .28.018.582.004.875zm-2.721-1.256v-1.542c0-.945-1.383-1.41-5.13-1.41-2.205 0-1.929.054-2.744.209-1.165.218-1.898.929-1.898 1.564l.005 1.179h9.767z"/><path fill="#D42F48" d="M99.075.552h15.932l-10.42 21.143h-5.142l8.676-16.777h-7.271z"/></svg>